<svg height="1614" width="720" xmlns="http://www.w3.org/2000/svg">
<rect height="1614" fill="#555" width="720"></rect>
<text fill="#7f7" font-family="Courier New" font-size="12" xml:space="preserve">
<tspan x="10" y="26">9 megabytes installed</tspan>
<tspan x="10" y="42"></tspan>
<tspan x="10" y="58">node_modules</tspan>
<tspan x="10" y="74">└─┬ markdown-live@1.0.8 </tspan>
<tspan x="10" y="90">  ├─┬ express@4.15.2 </tspan>
<tspan x="10" y="106">  │ ├─┬ accepts@1.3.3 </tspan>
<tspan x="10" y="122">  │ │ ├─┬ mime-types@2.1.15 </tspan>
<tspan x="10" y="138">  │ │ │ └── mime-db@1.27.0 </tspan>
<tspan x="10" y="154">  │ │ └── negotiator@0.6.1 </tspan>
<tspan x="10" y="170">  │ ├── array-flatten@1.1.1 </tspan>
<tspan x="10" y="186">  │ ├── content-disposition@0.5.2 </tspan>
<tspan x="10" y="202">  │ ├── content-type@1.0.2 </tspan>
<tspan x="10" y="218">  │ ├── cookie@0.3.1 </tspan>
<tspan x="10" y="234">  │ ├── cookie-signature@1.0.6 </tspan>
<tspan x="10" y="250">  │ ├─┬ debug@2.6.1 </tspan>
<tspan x="10" y="266">  │ │ └── ms@0.7.2 </tspan>
<tspan x="10" y="282">  │ ├── depd@1.1.0 </tspan>
<tspan x="10" y="298">  │ ├── encodeurl@1.0.1 </tspan>
<tspan x="10" y="314">  │ ├── escape-html@1.0.3 </tspan>
<tspan x="10" y="330">  │ ├── etag@1.8.0 </tspan>
<tspan x="10" y="346">  │ ├─┬ finalhandler@1.0.1 </tspan>
<tspan x="10" y="362">  │ │ ├── debug@2.6.3 </tspan>
<tspan x="10" y="378">  │ │ └── unpipe@1.0.0 </tspan>
<tspan x="10" y="394">  │ ├── fresh@0.5.0 </tspan>
<tspan x="10" y="410">  │ ├── merge-descriptors@1.0.1 </tspan>
<tspan x="10" y="426">  │ ├── methods@1.1.2 </tspan>
<tspan x="10" y="442">  │ ├─┬ on-finished@2.3.0 </tspan>
<tspan x="10" y="458">  │ │ └── ee-first@1.1.1 </tspan>
<tspan x="10" y="474">  │ ├── parseurl@1.3.1 </tspan>
<tspan x="10" y="490">  │ ├── path-to-regexp@0.1.7 </tspan>
<tspan x="10" y="506">  │ ├─┬ proxy-addr@1.1.4 </tspan>
<tspan x="10" y="522">  │ │ ├── forwarded@0.1.0 </tspan>
<tspan x="10" y="538">  │ │ └── ipaddr.js@1.3.0 </tspan>
<tspan x="10" y="554">  │ ├── qs@6.4.0 </tspan>
<tspan x="10" y="570">  │ ├── range-parser@1.2.0 </tspan>
<tspan x="10" y="586">  │ ├─┬ send@0.15.1 </tspan>
<tspan x="10" y="602">  │ │ ├── destroy@1.0.4 </tspan>
<tspan x="10" y="618">  │ │ ├─┬ http-errors@1.6.1 </tspan>
<tspan x="10" y="634">  │ │ │ └── inherits@2.0.3 </tspan>
<tspan x="10" y="650">  │ │ └── mime@1.3.4 </tspan>
<tspan x="10" y="666">  │ ├── serve-static@1.12.1 </tspan>
<tspan x="10" y="682">  │ ├── setprototypeof@1.0.3 </tspan>
<tspan x="10" y="698">  │ ├── statuses@1.3.1 </tspan>
<tspan x="10" y="714">  │ ├─┬ type-is@1.6.15 </tspan>
<tspan x="10" y="730">  │ │ └── media-typer@0.3.0 </tspan>
<tspan x="10" y="746">  │ ├── utils-merge@1.0.0 </tspan>
<tspan x="10" y="762">  │ └── vary@1.1.1 </tspan>
<tspan x="10" y="778">  ├─┬ filewatcher@2.2.0 </tspan>
<tspan x="10" y="794">  │ └─┬ debounce@1.0.0 </tspan>
<tspan x="10" y="810">  │   └── date-now@1.0.1 </tspan>
<tspan x="10" y="826">  ├── hamljs@0.6.2 </tspan>
<tspan x="10" y="842">  ├── marked@0.3.6 </tspan>
<tspan x="10" y="858">  ├── minimist@1.2.0 </tspan>
<tspan x="10" y="874">  ├── open@0.0.5 </tspan>
<tspan x="10" y="890">  ├─┬ socket.io@1.7.3 </tspan>
<tspan x="10" y="906">  │ ├── debug@2.3.3 </tspan>
<tspan x="10" y="922">  │ ├─┬ engine.io@1.8.3 </tspan>
<tspan x="10" y="938">  │ │ ├── base64id@1.0.0 </tspan>
<tspan x="10" y="954">  │ │ ├── debug@2.3.3 </tspan>
<tspan x="10" y="970">  │ │ ├─┬ engine.io-parser@1.3.2 </tspan>
<tspan x="10" y="986">  │ │ │ ├── after@0.8.2 </tspan>
<tspan x="10" y="1002">  │ │ │ ├── arraybuffer.slice@0.0.6 </tspan>
<tspan x="10" y="1018">  │ │ │ ├── base64-arraybuffer@0.1.5 </tspan>
<tspan x="10" y="1034">  │ │ │ ├── blob@0.0.4 </tspan>
<tspan x="10" y="1050">  │ │ │ └── wtf-8@1.0.0 </tspan>
<tspan x="10" y="1066">  │ │ └─┬ ws@1.1.2 </tspan>
<tspan x="10" y="1082">  │ │   ├── options@0.0.6 </tspan>
<tspan x="10" y="1098">  │ │   └── ultron@1.0.2 </tspan>
<tspan x="10" y="1114">  │ ├─┬ has-binary@0.1.7 </tspan>
<tspan x="10" y="1130">  │ │ └── isarray@0.0.1 </tspan>
<tspan x="10" y="1146">  │ ├── object-assign@4.1.0 </tspan>
<tspan x="10" y="1162">  │ ├─┬ socket.io-adapter@0.5.0 </tspan>
<tspan x="10" y="1178">  │ │ └── debug@2.3.3 </tspan>
<tspan x="10" y="1194">  │ ├─┬ socket.io-client@1.7.3 </tspan>
<tspan x="10" y="1210">  │ │ ├── backo2@1.0.2 </tspan>
<tspan x="10" y="1226">  │ │ ├── component-bind@1.0.0 </tspan>
<tspan x="10" y="1242">  │ │ ├── component-emitter@1.2.1 </tspan>
<tspan x="10" y="1258">  │ │ ├── debug@2.3.3 </tspan>
<tspan x="10" y="1274">  │ │ ├─┬ engine.io-client@1.8.3 </tspan>
<tspan x="10" y="1290">  │ │ │ ├── component-emitter@1.2.1 </tspan>
<tspan x="10" y="1306">  │ │ │ ├── component-inherit@0.0.3 </tspan>
<tspan x="10" y="1322">  │ │ │ ├── debug@2.3.3 </tspan>
<tspan x="10" y="1338">  │ │ │ ├── has-cors@1.1.0 </tspan>
<tspan x="10" y="1354">  │ │ │ ├── parsejson@0.0.3 </tspan>
<tspan x="10" y="1370">  │ │ │ ├── parseqs@0.0.5 </tspan>
<tspan x="10" y="1386">  │ │ │ ├── xmlhttprequest-ssl@1.5.3 </tspan>
<tspan x="10" y="1402">  │ │ │ └── yeast@0.1.2 </tspan>
<tspan x="10" y="1418">  │ │ ├── indexof@0.0.1 </tspan>
<tspan x="10" y="1434">  │ │ ├── object-component@0.0.3 </tspan>
<tspan x="10" y="1450">  │ │ ├─┬ parseuri@0.0.5 </tspan>
<tspan x="10" y="1466">  │ │ │ └─┬ better-assert@1.0.2 </tspan>
<tspan x="10" y="1482">  │ │ │   └── callsite@1.0.0 </tspan>
<tspan x="10" y="1498">  │ │ └── to-array@0.1.4 </tspan>
<tspan x="10" y="1514">  │ └─┬ socket.io-parser@2.3.1 </tspan>
<tspan x="10" y="1530">  │   ├── component-emitter@1.1.2 </tspan>
<tspan x="10" y="1546">  │   ├─┬ debug@2.2.0 </tspan>
<tspan x="10" y="1562">  │   │ └── ms@0.7.1 </tspan>
<tspan x="10" y="1578">  │   └── json3@3.3.2 </tspan>
<tspan x="10" y="1594">  └── watch@0.13.0</tspan>
</text>
</svg>
